<?xml version="1.0" encoding="utf-8"?><svg viewBox="0 0 21 20" xmlns="http://www.w3.org/2000/svg" xmlns:xlink="http://www.w3.org/1999/xlink"><style>:root>svg{display:none}:root>svg:target{display:block}</style><svg fill="none" viewBox="0 0 21 18" id="basket" xmlns="http://www.w3.org/2000/svg"><path fill-rule="evenodd" clip-rule="evenodd" d="M.5 1a1 1 0 0 1 1-1h2.39a1 1 0 0 1 .937.653L5.697 3H19.5a1 1 0 0 1 .968 1.251l-1.075 4.143a3 3 0 0 1-2.904 2.246H7.736l.24.69a1 1 0 0 0 .945.67H16a1 1 0 1 1 0 2H8.92a3 3 0 0 1-2.832-2.012l-.704-2.019a1 1 0 0 1-.029-.1L4.041 4.29 3.193 2H1.5a1 1 0 0 1-1-1Zm5.763 4 .857 3.64h9.37a1 1 0 0 0 .967-.749L18.207 5H6.263ZM9.5 16.5a1.5 1.5 0 1 1-3 0 1.5 1.5 0 0 1 3 0ZM16 18a1.5 1.5 0 1 0 0-3 1.5 1.5 0 0 0 0 3Z" fill="#000"/></svg><svg fill="none" viewBox="0 0 20 20" id="compare" xmlns="http://www.w3.org/2000/svg"><path d="M1.11 13.768 4.355 3.65l3.51 10.117M12.134 13.768 15.379 3.65l3.51 10.117"/><circle cx="10" cy="3.651" r="1.553"/><path d="M11.914 3.54h1.485M6.6 3.54h1.486M4.488 17.231A3.74 3.74 0 0 1 .827 14.25H8.15a3.74 3.74 0 0 1-3.662 2.981ZM15.512 17.231a3.74 3.74 0 0 1-3.661-2.981h7.322a3.74 3.74 0 0 1-3.66 2.981Z"/></svg><svg viewBox="0 0 20 19" id="like" xmlns="http://www.w3.org/2000/svg"><path d="M10 17c-3.594-1.54-8.486-5.943-8.985-10.995C.787 3.705 3.26 1 5.507 1 7.612 1 9.101 2.155 10 4.08 10.899 2.155 12.388 1 14.493 1c2.246 0 4.72 2.704 4.492 5.005C18.486 11.057 13.595 15.46 10 17Z"/></svg></svg>